{"title":"Fugly (2014) PreDvD Rip -X264 {VikkyMaxx}[SilverRG]","uid":10358118,"size":651460768,"categoryP":"video","categoryS":"movies","magnet":"?xt=urn:btih:2e8d79fa65362f5edbe60c8a6141452d6f0ee457&amp;dn=Fugly+%282014%29+PreDvD+Rip+-X264+%7BVikkyMaxx%7D%5BSilverRG%5D&amp;tr=udp%3A%2F%2Ftracker.openbittorrent.com%3A80&amp;tr=udp%3A%2F%2Fopen.demonii.com%3A1337&amp;tr=udp%3A%2F%2Ftracker.coppersurfer.tk%3A6969&amp;tr=udp%3A%2F%2Fexodus.desync.com%3A6969","seeders":1,"leechers":0,"uploader":"shailendramaxx","files":20,"time":1402772455,"description":"VikkyMaxx SilverRG Presents:-\n\n\nGeneral:-\n \nComplete name :Fugly (2014) PreDvD Rip -X264 {VikkyMaxx}[SilverRG]\nFormat : AVI \nFormat/Info : Audio Video Interleave \nFile size : 614 MiB \nDuration : 2h 15mn \nOverall bit rate : 635 Kbps \n\nVideo:-\n \nID : 0 \nFormat : MPEG-4 Visual \nFormat profile : Advanced Simple@L5 \nFormat settings, BVOP : 2 \nFormat settings, QPel : No \nFormat settings, GMC : No warppoints \nFormat settings, Matrix : Default (H.263) \nCodec ID : XVID \nCodec ID/Hint : XviD \nDuration : 2h 15mn \nBit rate : 521 Kbps \nWidth : 640 pixels \nHeight : 272 pixels \nDisplay aspect ratio : 2.35:1 \nFrame rate : 25.000 fps \nColor space : YUV \nChroma subsampling : 4:2:0 \nBit depth : 8 bits \nScan type : Progressive \nCompression mode : Lossy \nBits/(Pixel*Frame) : 0.120 \nStream size : 503 MiB (82%) \nWriting library : XviD 1.2.1 (UTC 2008-12-04) \n\nAudio:-\n \nID : 1 \nFormat : MPEG Audio \nFormat version : Version 1 \nFormat profile : Layer 3 \nMode : Joint stereo \nMode extension : MS Stereo \nCodec ID : 55 \nCodec ID/Hint : MP3 \nDuration : 2h 15mn \nBit rate mode : Constant \nBit rate : 80.0 Kbps \nChannel(s) : 2 channels \nSampling rate : 32.0 KHz \nCompression mode : Lossy \nStream size : 77.3 MiB (13%) \nAlignment : Aligned on interleaves \nTitle : VTS_01_1 T80 3_2ch 448Kbps DELAY 0ms \nWriting library : LAME3.99r \nEncoding settings : -m j -V 4 -q 2 -lowpass 13.5 -b 80 \nLanguage : Hindi \n\n\nSCREENS:-\n\n &lt;a href=&quot;\nhttp://i.imgur.com/mxOmHzV.jpg&quot; rel=&quot;nofollow&quot; target=&quot;_NEW&quot;&gt;\nhttp://i.imgur.com/mxOmHzV.jpg&lt;/a&gt;\n &lt;a href=&quot;\nhttp://i.imgur.com/iuV08QY.jpg&quot; rel=&quot;nofollow&quot; target=&quot;_NEW&quot;&gt;\nhttp://i.imgur.com/iuV08QY.jpg&lt;/a&gt;\n &lt;a href=&quot;\nhttp://i.imgur.com/301cpdz.jpg&quot; rel=&quot;nofollow&quot; target=&quot;_NEW&quot;&gt;\nhttp://i.imgur.com/301cpdz.jpg&lt;/a&gt;\n &lt;a href=&quot;\nhttp://i.imgur.com/R9mVpyq.jpg&quot; rel=&quot;nofollow&quot; target=&quot;_NEW&quot;&gt;\nhttp://i.imgur.com/R9mVpyq.jpg&lt;/a&gt;\n &lt;a href=&quot;\nhttp://i.imgur.com/1ZTMyDt.jpg&quot; rel=&quot;nofollow&quot; target=&quot;_NEW&quot;&gt;\nhttp://i.imgur.com/1ZTMyDt.jpg&lt;/a&gt;\n &lt;a href=&quot;\nhttp://i.imgur.com/wbKeTWm.jpg&quot; rel=&quot;nofollow&quot; target=&quot;_NEW&quot;&gt;\nhttp://i.imgur.com/wbKeTWm.jpg&lt;/a&gt;\n &lt;a href=&quot;\nhttp://i.imgur.com/bXAObHT.jpg&quot; rel=&quot;nofollow&quot; target=&quot;_NEW&quot;&gt;\nhttp://i.imgur.com/bXAObHT.jpg&lt;/a&gt;\n &lt;a href=&quot;\nhttp://i.imgur.com/j27X2xf.jpg&quot; rel=&quot;nofollow&quot; target=&quot;_NEW&quot;&gt;\nhttp://i.imgur.com/j27X2xf.jpg&lt;/a&gt;\n &lt;a href=&quot;\nhttp://i.imgur.com/TPKcnBy.jpg&quot; rel=&quot;nofollow&quot; target=&quot;_NEW&quot;&gt;\nhttp://i.imgur.com/TPKcnBy.jpg&lt;/a&gt;\n &lt;a href=&quot;\nhttp://i.imgur.com/8KTGzZM.jpg&quot; rel=&quot;nofollow&quot; target=&quot;_NEW&quot;&gt;\nhttp://i.imgur.com/8KTGzZM.jpg&lt;/a&gt;\n &lt;a href=&quot;\nhttp://i.imgur.com/IEfpAnU.jpg&quot; rel=&quot;nofollow&quot; target=&quot;_NEW&quot;&gt;\nhttp://i.imgur.com/IEfpAnU.jpg&lt;/a&gt;\n &lt;a href=&quot;\nhttp://i.imgur.com/39REZ0x.jpg&quot; rel=&quot;nofollow&quot; target=&quot;_NEW&quot;&gt;\nhttp://i.imgur.com/39REZ0x.jpg&lt;/a&gt;\n\n\n\nSAMPLE AND SCREENSHOTS INCLUDED\n\n    \n             \n             ********** PLEASE SEED AS LONG AS YOU CAN AFTER DOWNLOAD **********\n       \n                    ***** THANK YOU REGARDS - VIKKYMAXX (SilverRG) *****\n                                        \n\n\n\n\n\n                  ","torrent":{"xt":"urn:btih:2e8d79fa65362f5edbe60c8a6141452d6f0ee457","amp;dn":"Fugly+%282014%29+PreDvD+Rip+-X264+%7BVikkyMaxx%7D%5BSilverRG%5D","amp;tr":["udp%3A%2F%2Ftracker.openbittorrent.com%3A80","udp%3A%2F%2Fopen.demonii.com%3A1337","udp%3A%2F%2Ftracker.coppersurfer.tk%3A6969","udp%3A%2F%2Fexodus.desync.com%3A6969"],"infoHash":"2e8d79fa65362f5edbe60c8a6141452d6f0ee457","infoHashBuffer":{"type":"Buffer","data":[46,141,121,250,101,54,47,94,219,230,12,138,97,65,69,45,111,14,228,87]},"announce":[],"urlList":[]}}